Release Date: 1981
Country: West Germany, France, Austria
Genre: Biography, Drama, Erotic
Runtime: 95 min
Audio(built-in): Russian(voiceover)
Audio(external): French, German
Subtitles(external): German, English, Portuguese

Director: Herbert Vesely

Stars: Mathieu Carrière, Jane Birkin, Christine Kaufmann

Egon Schiele. Exzess und BestrafungEgon Schiele - Exzesse.mkv
  General
    Format : Matroska
    Format version : Version 4 / Version 2
    File size : 1.42 GiB
    Duration : 1h 29mn
    Overall bit rate : 2 273 Kbps
    Encoded date : UTC 2010-02-22 21:41:31
    Writing application : mkvmerge v5.9.0 ('On The Loose') built on Dec  9 2012 15:37:01
    Writing library : libebml v1.3.0 + libmatroska v1.4.0
  Video #1
    ID : 1
    Format : AVC
    Format/Info : Advanced Video Codec
    Format profile : High@L4.1
    Format settings, CABAC : Yes
    Format settings, ReFrames : 11 frames
    Muxing mode : Header stripping
    Codec ID : V_MPEG4/ISO/AVC
    Duration : 1h 29mn
    Bit rate : 2 048 Kbps
    Width : 720 pixels
    Height : 576 pixels
    Display aspect ratio : 16:9
    Frame rate mode : Constant
    Frame rate : 25.000 fps
    Standard : PAL
    Color space : YUV
    Chroma subsampling : 4:2:0
    Bit depth : 8 bits
    Scan type : Progressive
    Bits/(Pixel*Frame) : 0.198
    Stream size : 1.25 GiB (88%)
    Writing library : x264 core 125 r2208 d9d2288
    Encoding settings : cabac=1 / ref=11 / deblock=1:0:0 / analyse=0x3:0x133 / me=umh / subme=9 / psy=1 / psy_rd=1.00:0.20 / mixed_ref=1 / me_range=24 / chroma_me=1 / trellis=1 / 8x8dct=1 / cqm=0 / deadzone=21,11 / fast_pskip=1 / chroma_qp_offset=-3 / threads=3 / lookahead_threads=1 / sliced_threads=0 / nr=0 / decimate=1 / interlaced=0 / bluray_compat=0 / constrained_intra=0 / bframes=3 / b_pyramid=2 / b_adapt=1 / b_bias=0 / direct=3 / weightb=1 / open_gop=0 / weightp=2 / keyint=250 / keyint_min=25 / scenecut=40 / intra_refresh=0 / rc_lookahead=40 / rc=2pass / mbtree=1 / bitrate=2048 / ratetol=1.0 / qcomp=0.60 / qpmin=0 / qpmax=69 / qpstep=4 / cplxblur=20.0 / qblur=0.5 / ip_ratio=1.40 / aq=1:1.00
    Default : Yes
    Forced : No
  Audio #2
    ID : 2
    Format : AC-3
    Format/Info : Audio Coding 3
    Mode extension : CM (complete main)
    Format settings, Endianness : Big
    Muxing mode : Header stripping
    Codec ID : A_AC3
    Duration : 1h 29mn
    Bit rate mode : Constant
    Bit rate : 224 Kbps
    Channel(s) : 2 channels
    Channel positions : Front: L R
    Sampling rate : 48.0 KHz
    Bit depth : 16 bits
    Compression mode : Lossy
    Stream size : 143 MiB (10%)
    Language : Russian
    Default : Yes
    Forced : No


Egon Schiele. Exzess und BestrafungEgon Schiele - Exzesse.French.ac3
  General
    Format : AC-3
    Format/Info : Audio Coding 3
    File size : 123 MiB
    Duration : 1h 29mn
    Overall bit rate mode : Constant
    Overall bit rate : 192 Kbps
  Audio
    Format : AC-3
    Format/Info : Audio Coding 3
    Mode extension : CM (complete main)
    Format settings, Endianness : Big
    Duration : 1h 29mn
    Bit rate mode : Constant
    Bit rate : 192 Kbps
    Channel(s) : 2 channels
    Channel positions : Front: L R
    Sampling rate : 48.0 KHz
    Bit depth : 16 bits
    Compression mode : Lossy
    Stream size : 123 MiB (100%)


Egon Schiele. Exzess und BestrafungEgon Schiele - Exzesse.German.ac3
  General
    Format : AC-3
    Format/Info : Audio Coding 3
    File size : 123 MiB
    Duration : 1h 29mn
    Overall bit rate mode : Constant
    Overall bit rate : 192 Kbps
  Audio
    Format : AC-3
    Format/Info : Audio Coding 3
    Mode extension : CM (complete main)
    Format settings, Endianness : Big
    Duration : 1h 29mn
    Bit rate mode : Constant
    Bit rate : 192 Kbps
    Channel(s) : 2 channels
    Channel positions : Front: L R
    Sampling rate : 48.0 KHz
    Bit depth : 16 bits
    Compression mode : Lossy
    Stream size : 123 MiB (100%)


Source: DVD5 from